<svg version="1.2" xmlns="http://www.w3.org/2000/svg" viewBox="0 0 18 17" width="18" height="17"><defs><clipPath clipPathUnits="userSpaceOnUse" id="cp1"><path d="m-92-100h480v725h-480z"/></clipPath></defs><style>.a{fill:#3a4641}.b{fill:#14d583}</style><g clip-path="url(#cp1)"><path class="a" d="m17.3 11.6c0 2.4-1.9 4.4-4.3 4.4h-8.6c-2.4 0-4.4-2-4.4-4.4 0 0 0-3.8 0-5.8 0-0.3 0.4-0.6 0.7-0.3 2.1 1.6 5.8 4.6 5.8 4.6 0.6 0.5 1.4 0.8 2.2 0.8 0.8 0 1.6-0.3 2.2-0.8 0 0 3.6-2.9 5.7-4.6 0.3-0.2 0.7 0 0.7 0.4 0 1.9 0 5.7 0 5.7z"/><path class="b" d="m16.7 3.6l-6.4 5.2c-0.5 0.3-1 0.5-1.6 0.5q0 0 0 0 0 0 0 0c-0.6 0-1.1-0.2-1.6-0.5l-6.4-5.2c-0.3-0.2-0.3-0.6-0.2-0.9 0.8-1.5 2.3-2.4 3.9-2.4h8.6c1.7 0 3.1 0.9 3.9 2.4 0.1 0.3 0.1 0.7-0.2 0.9z"/></g></svg>