<svg version="1.2" xmlns="http://www.w3.org/2000/svg" viewBox="0 0 19 16" width="19" height="16"><defs><clipPath clipPathUnits="userSpaceOnUse" id="cp1"><path d="m-207-100h480v725h-480z"/></clipPath></defs><style>.a{fill:#14d583}.b{opacity:.4;fill:#3d3f3e}.c{fill:#3a4641}</style><g clip-path="url(#cp1)"><path fill-rule="evenodd" class="a" d="m13.2 16h-7.8c-1.4 0-2.7-0.4-3.5-1.2-0.8-0.8-1.2-2-1.2-3.5v-6.3c0-1.5 0.4-2.6 1.2-3.4 0.8-0.8 2.1-1.3 3.5-1.3h7.8c1.5 0 2.7 0.5 3.5 1.3 0.9 0.8 1.3 1.9 1.3 3.4h-3.7c-1.7 0-3.1 1.4-3.1 3 0 0.9 0.4 1.6 0.9 2.2 0.6 0.6 1.4 0.9 2.2 0.9h3.7v0.2c0 1.5-0.4 2.7-1.3 3.5-0.8 0.8-2 1.2-3.5 1.2zm-8.4-12.3c-0.4 0-0.7 0.3-0.7 0.7q0 0.2 0.2 0.4 0.2 0.2 0.5 0.2h4.9q0.2 0 0.4-0.2 0.2-0.2 0.2-0.4c0-0.4-0.3-0.7-0.6-0.7z"/><path class="b" d="m12.8 8.1c0-1 0.8-1.8 1.7-1.8h2.9c0.3 0 0.6 0.3 0.6 0.7v2.2c0 0.3-0.3 0.6-0.6 0.6h-2.8c-0.9 0-1.6-0.5-1.8-1.4q0-0.1 0-0.3z"/><path class="c" d="m14.5 8.9c-0.4 0-0.8-0.3-0.8-0.8 0-0.5 0.4-0.9 0.8-0.9 0.5 0 0.9 0.4 0.9 0.9 0 0.5-0.4 0.8-0.9 0.8z"/></g></svg>