<svg version="1.2" xmlns="http://www.w3.org/2000/svg" viewBox="0 0 19 21" width="19" height="21"><defs><clipPath clipPathUnits="userSpaceOnUse" id="cp1"><path d="m-316-98h480v725h-480z"/></clipPath></defs><style>.a{fill:#14d583}.b{opacity:1;fill:#3e3e3e}</style><g clip-path="url(#cp1)"><path fill-rule="evenodd" class="a" d="m13.4 20.3h-8.4c-2 0-3.3-0.4-4.1-1.3q-0.6-0.7-0.8-1.8-0.2-1.1 0-2.7l0.8-6.3q0.3-1.6 1.2-2.5c0.5-0.5 1.2-0.7 1.9-0.7h10.3c0.7 0 1.4 0.3 1.9 0.7q0.9 0.9 1.3 2.5l0.7 6.3q0.4 2.8-0.9 4.4c-0.8 0.9-2.2 1.4-3.9 1.4zm-1.3-11.9c-0.5 0-0.9 0.4-0.9 0.9 0 0.5 0.4 1 0.9 1 0.5 0 0.9-0.5 0.9-1 0-0.5-0.4-0.9-0.9-0.9zm-5.9 0c-0.5 0-0.9 0.4-0.9 0.9 0 0.5 0.4 1 0.9 1 0.5 0 0.9-0.5 0.9-1 0-0.5-0.4-0.9-0.9-0.9z"/><path class="b" d="m14.2 4.9q0 0.1 0 0.2h-1.5q0-0.1 0-0.2c0-2-1.6-3.6-3.6-3.6-1.9 0-3.5 1.6-3.5 3.6q0 0.1 0 0.2h-1.5q0-0.1 0-0.2c0.1-2.8 2.3-4.9 5.1-4.9 2.7 0 4.9 2.1 5.1 4.9z"/></g></svg>